<svg id="Layer_1" data-name="Layer 1" xmlns="http://www.w3.org/2000/svg" viewBox="0 0 91.69 2.64"><defs><style>.cls-1{fill:#1d1d1b;}</style></defs><title>zigzag-rund</title><path class="cls-1" d="M1468.36,403.06a2,2,0,0,0,1.47-.61l0.95-1a2,2,0,0,1,2.87,0l0.95,1a2,2,0,0,0,2.86,0l0.95-1a2,2,0,0,1,2.87,0l0.95,1a2,2,0,0,0,2.86,0l0.95-1a2,2,0,0,1,2.87,0l0.95,1a2,2,0,0,0,2.86,0l0.95-1a2,2,0,0,1,2.87,0l0.95,1a2,2,0,0,0,2.86,0l0.95-1a2,2,0,0,1,2.87,0l0.95,1a2,2,0,0,0,2.86,0l0.95-1a2,2,0,0,1,2.87,0l0.94,1a2,2,0,0,0,2.86,0l0.95-1a2,2,0,0,1,2.87,0l0.95,1a2,2,0,0,0,2.86,0l1-1a2,2,0,0,1,2.87,0l0.95,1a2,2,0,0,0,2.86,0l1-1a2,2,0,0,1,2.87,0l1,1a2,2,0,0,0,2.86,0l1-1a2,2,0,0,1,2.87,0l1,1a2,2,0,0,0,2.86,0l1-1a2,2,0,0,1,2.87,0l1,1a2,2,0,0,0,2.86,0l1-1a2,2,0,0,1,2.87,0l1,1a2,2,0,0,0,1.43.61v0.43a2,2,0,0,1-1.43-.61l-1-1a2,2,0,0,0-2.87,0l-1,1a2,2,0,0,1-2.86,0l-1-1a2,2,0,0,0-2.87,0l-1,1a2,2,0,0,1-2.86,0l-1-1a2,2,0,0,0-2.87,0l-1,1a2,2,0,0,1-2.86,0l-1-1a2,2,0,0,0-2.87,0l-1,1a2,2,0,0,1-2.86,0l-0.95-1a2,2,0,0,0-2.87,0l-1,1a2,2,0,0,1-2.86,0l-0.95-1a2,2,0,0,0-2.87,0l-0.95,1a2,2,0,0,1-2.86,0l-0.94-1a2,2,0,0,0-2.87,0l-0.95,1a2,2,0,0,1-2.86,0l-0.95-1a2,2,0,0,0-2.87,0l-0.95,1a2,2,0,0,1-2.86,0l-0.95-1a2,2,0,0,0-2.87,0l-0.95,1a2,2,0,0,1-2.86,0l-0.95-1a2,2,0,0,0-2.87,0l-0.95,1a2,2,0,0,1-2.86,0l-0.95-1a2,2,0,0,0-2.87,0l-0.95,1a2,2,0,0,1-2.86,0l-0.95-1a2,2,0,0,0-2.87,0l-0.95,1a2,2,0,0,1-1.51.61Z" transform="translate(-1468.32 -400.85)"/></svg>